<svg width="161" height="58" viewBox="0 0 161 58" fill="none" xmlns="http://www.w3.org/2000/svg">
<path d="M54.9867 49.0952H49.7689L56.5462 29.0086H63.0096L69.7868 49.0952H64.569L59.8514 34.0695H59.6945L54.9867 49.0952ZM54.2903 41.19H65.1967V44.8778H54.2903V41.19ZM76.7455 29.0086V49.0952H71.9495V29.0086H76.7455ZM89.5179 42.5926V34.0303H94.3041V49.0952H89.7336V46.2902H89.5767C89.2432 47.2121 88.6744 47.9444 87.8701 48.4871C87.0724 49.0233 86.108 49.2914 84.9768 49.2914C83.9503 49.2914 83.0479 49.056 82.2698 48.5852C81.4917 48.1144 80.8869 47.4573 80.4554 46.6138C80.0238 45.7638 79.8048 44.7699 79.7982 43.6322V34.0303H84.5943V42.6907C84.6008 43.508 84.8166 44.152 85.2416 44.6228C85.6666 45.0936 86.2453 45.329 86.9776 45.329C87.4549 45.329 87.8832 45.2244 88.2625 45.0151C88.6482 44.7994 88.9523 44.4888 89.1746 44.0834C89.4034 43.6714 89.5179 43.1745 89.5179 42.5926ZM104.379 55.0584C102.947 55.0584 101.721 54.859 100.701 54.4601C99.6813 54.0613 98.8803 53.5153 98.2984 52.8222C97.7165 52.1291 97.3666 51.3445 97.2489 50.4683L101.79 50.2133C101.875 50.5206 102.032 50.7887 102.261 51.0176C102.496 51.2464 102.8 51.423 103.173 51.5472C103.552 51.6714 103.997 51.7335 104.507 51.7335C105.311 51.7335 105.975 51.5374 106.498 51.1451C107.027 50.7593 107.292 50.0825 107.292 49.1148V46.4667H107.126C106.936 46.9309 106.648 47.3461 106.262 47.7123C105.877 48.0785 105.396 48.3662 104.821 48.5754C104.252 48.7846 103.598 48.8892 102.859 48.8892C101.761 48.8892 100.754 48.6342 99.8382 48.1242C98.9294 47.6077 98.2003 46.81 97.6511 45.7311C97.1084 44.6457 96.837 43.2497 96.837 41.5431C96.837 39.7842 97.1182 38.3359 97.6805 37.1982C98.2428 36.054 98.9784 35.2072 99.8873 34.658C100.803 34.1087 101.787 33.8341 102.839 33.8341C103.631 33.8341 104.307 33.9714 104.87 34.2461C105.439 34.5141 105.906 34.8607 106.272 35.2857C106.638 35.7107 106.916 36.1521 107.106 36.6098H107.243V34.0303H112.02V49.1541C112.02 50.4291 111.699 51.5047 111.058 52.3809C110.418 53.257 109.522 53.9207 108.371 54.3719C107.22 54.8296 105.89 55.0584 104.379 55.0584ZM104.526 45.3976C105.108 45.3976 105.605 45.244 106.017 44.9367C106.429 44.6294 106.746 44.188 106.969 43.6126C107.191 43.0372 107.302 42.3474 107.302 41.5431C107.302 40.7258 107.191 40.0229 106.969 39.4344C106.753 38.8394 106.436 38.3817 106.017 38.0613C105.605 37.7409 105.108 37.5807 104.526 37.5807C103.931 37.5807 103.428 37.7442 103.016 38.0711C102.604 38.3981 102.29 38.859 102.074 39.454C101.865 40.0425 101.761 40.7389 101.761 41.5431C101.761 42.3474 101.868 43.0372 102.084 43.6126C102.3 44.188 102.611 44.6294 103.016 44.9367C103.428 45.244 103.931 45.3976 104.526 45.3976ZM119.422 49.0952H114.204L120.982 29.0086H127.445L134.222 49.0952H129.004L124.287 34.0695H124.13L119.422 49.0952ZM118.726 41.19H129.632V44.8778H118.726V41.19ZM136.412 49.0952V34.0303H141.208V49.0952H136.412ZM137.157 32.1177L139.138 27.6944H143.385L140.423 32.1177H137.157Z" fill="#FF7B00"/>
<rect x="46.3246" y="19.3333" width="106.284" height="8.28571" rx="4.14286" fill="#FF7B00"/>
<path d="M26.5711 13.3887L6.40938 30.949C6.25992 31.0821 6.06894 31.144 5.90471 31.2542V48.1031C5.90471 48.9085 6.5653 49.5608 7.38089 49.5608H21.149L17.7141 42.9275L27.3194 37.0968L21.769 26.2353L35.4282 38.6966L25.8229 44.5273L29.506 49.5608H45.7614C46.577 49.5608 47.2376 48.9085 47.2376 48.1031V31.2579C47.0807 31.1522 46.8944 31.0921 46.7523 30.9664L26.5711 13.3887ZM52.6524 24.4415V19.3333H47.2376V7.2883C47.2376 6.48294 46.577 5.83063 45.7614 5.83063H39.8567C39.0411 5.83063 38.3805 6.48294 38.3805 7.2883V11.9975L29.0391 3.85457C28.3352 3.2296 27.4532 2.9162 26.5711 2.91529C25.6891 2.91437 24.809 3.22595 24.1078 3.85093L0.489927 24.4415C-0.116227 24.9799 -0.16697 25.901 0.378291 26.5004L2.35267 28.6705C2.89701 29.2691 3.83069 29.3192 4.43777 28.7808L25.595 10.3521C26.1532 9.86656 26.99 9.86656 27.5482 10.3521L49.1216 27.619H52.6524V26.238V26.0452C52.6524 26.0452 52.6524 24.4957 52.6524 24.4415Z" fill="#FF7B00"/>
</svg>
